<?xml version="1.0" encoding="utf-8"?>
<!-- Generator: Adobe Illustrator 24.1.2, SVG Export Plug-In . SVG Version: 6.00 Build 0)  -->
<svg version="1.1" id="Слой_1" xmlns="http://www.w3.org/2000/svg" xmlns:xlink="http://www.w3.org/1999/xlink" x="0px" y="0px"
	 viewBox="0 0 169.91 341.59" style="enable-background:new 0 0 169.91 341.59;" xml:space="preserve">
<style type="text/css">
	.st0{stroke:#FFFFFF;stroke-miterlimit:10;}
	.st1{fill:none;stroke:#FFFFFF;stroke-miterlimit:10;}
</style>
<ellipse transform="matrix(0.5856 -0.8106 0.8106 0.5856 -43.066 155.0231)" class="st0" cx="130.09" cy="119.63" rx="15.23" ry="46.54"/>
<ellipse transform="matrix(0.8106 -0.5856 0.5856 0.8106 -62.585 45.765)" class="st0" cx="39.46" cy="119.63" rx="46.54" ry="15.23"/>
<ellipse class="st0" cx="85.97" cy="149.56" rx="25.73" ry="85.84"/>
<ellipse transform="matrix(0.1279 -0.9918 0.9918 0.1279 -217.8665 305.3214)" class="st0" cx="64.69" cy="276.55" rx="62.39" ry="14.21"/>
<ellipse transform="matrix(0.9918 -0.1279 0.1279 0.9918 -34.5083 15.8589)" class="st0" cx="106.19" cy="276.55" rx="14.21" ry="62.39"/>
<g id="XMLID_1_">
	<g>
		<path d="M85.98,3.54c15.69,0,28.42,17.04,28.42,38.05c0,21.02-12.73,38.06-28.42,38.06c-15.7,0-28.42-17.04-28.42-38.06
			C57.56,20.58,70.28,3.54,85.98,3.54z"/>
	</g>
	<g>
		<path class="st1" d="M114.4,41.59c0,21.02-12.73,38.06-28.42,38.06c-15.7,0-28.42-17.04-28.42-38.06
			c0-21.01,12.72-38.05,28.42-38.05C101.67,3.54,114.4,20.58,114.4,41.59z"/>
	</g>
</g>
</svg>
